<svg width="238" height="216" viewBox="0 0 238 216" fill="none" xmlns="http://www.w3.org/2000/svg">
<rect width="238" height="216" rx="16" fill="#E2E2E2"/>
<path d="M128.31 60.75C139.315 60.75 144.537 61.7582 149.959 64.6582C154.855 67.2768 158.723 71.1447 161.342 76.0409C164.242 81.4635 165.25 86.6845 165.25 97.6895V117.31C165.25 128.315 164.242 133.537 161.342 138.959C158.723 143.855 154.855 147.723 149.959 150.342C144.537 153.242 139.315 154.25 128.31 154.25H108.69C97.6845 154.25 92.4635 153.242 87.0409 150.342C82.1447 147.723 78.2768 143.855 75.6582 138.959C72.7582 133.537 71.75 128.315 71.75 117.31V97.6895C71.75 86.6845 72.7582 81.4635 75.6582 76.0409C78.2768 71.1447 82.1447 67.2768 87.0409 64.6582C92.4635 61.7582 97.6845 60.75 108.69 60.75H128.31ZM135.411 113.628L117.552 135.675C116.061 137.517 113.35 137.782 111.529 136.265L101.761 128.125L88.5937 141.294C89.3625 141.864 90.1814 142.382 91.0495 142.846C95.0723 144.998 98.9677 145.75 108.69 145.75H128.31C138.032 145.75 141.928 144.998 145.95 142.846C149.365 141.02 152.02 138.365 153.846 134.95C154.471 133.783 154.977 132.626 155.382 131.335L135.411 113.628ZM128.31 69.25H108.69C98.9677 69.25 95.0723 70.0022 91.0495 72.1536C87.6346 73.98 84.98 76.6346 83.1536 80.0495C81.0022 84.0723 80.25 87.9677 80.25 97.6895V117.31C80.25 126.902 80.9822 130.822 83.068 134.789L98.4948 119.37C100.049 117.815 102.532 117.703 104.221 119.11L113.66 126.976L131.603 104.825C133.127 102.943 135.913 102.713 137.725 104.32L156.702 121.143C156.735 119.973 156.75 118.702 156.75 117.31V97.6895C156.75 87.9677 155.998 84.0723 153.846 80.0495C152.02 76.6346 149.365 73.98 145.95 72.1536C141.928 70.0022 138.032 69.25 128.31 69.25ZM103.625 86.25C107.146 86.25 110 89.1042 110 92.625C110 96.1458 107.146 99 103.625 99C100.104 99 97.25 96.1458 97.25 92.625C97.25 89.1042 100.104 86.25 103.625 86.25Z" fill="#BEBEBE"/>
</svg>
